name C:\Users\antoi\Documents\MyRepositories\upper-imu-dc\Results\main_tracking\Case_92\kinematics.mot
datacolumns 43
datarows 11
range 3.74000000 3.94000000
endheader 
time	clav_prot	clav_elev	scapula_abduction	scapula_elevation	scapula_upward_rot	scapula_winging	plane_elv	shoulder_elv	axial_rot	TrapeziusScapula_M/activation	TrapeziusScapula_S/activation	TrapeziusScapula_I/activation	TrapeziusClavicle_S/activation	SerratusAnterior_I/activation	SerratusAnterior_M/activation	SerratusAnterior_S/activation	Rhomboideus_S/activation	Rhomboideus_I/activation	LevatorScapulae/activation	Coracobrachialis/activation	DeltoideusClavicle_A/activation	DeltoideusScapula_P/activation	DeltoideusScapula_M/activation	LatissimusDorsi_S/activation	LatissimusDorsi_M/activation	LatissimusDorsi_I/activation	PectoralisMajorClavicle_S/activation	PectoralisMajorThorax_I/activation	PectoralisMajorThorax_M/activation	TeresMajor/activation	Infraspinatus_I/activation	Infraspinatus_S/activation	PectoralisMinor/activation	TeresMinor/activation	Subscapularis_S/activation	Subscapularis_M/activation	Subscapularis_I/activation	Supraspinatus_P/activation	Supraspinatus_A/activation	TRIlong/activation	BIC_long/activation	BIC_brevis/activation	
          3.74000000	        -29.99128566	         -2.66759100	        -22.30752338	         -4.62849230	         18.34007634	          2.94206297	         -5.61154700	         37.97152547	          9.75889289	          0.03140750	          0.07040922	          0.01665530	          0.01598912	          0.01105075	          0.01105632	          0.01149629	          0.01691937	          0.02315422	          0.01689984	          0.01068112	          0.01096131	          0.06539610	          0.08518764	          0.01336186	          0.01212467	          0.01210297	          0.01082393	          0.01037687	          0.01044663	          0.01914402	          0.02788616	          0.03433337	          0.01089895	          0.01583922	          0.01116622	          0.01155882	          0.01222127	          0.01259401	          0.01112580	          0.04381947	          0.01130219	          0.01077589	
          3.76000000	        -30.27278456	         -2.61295118	        -22.56515522	         -4.69308225	         18.69556099	          2.77943089	         -5.11176718	         38.63296972	          9.31363221	          0.03075130	          0.07277176	          0.01691933	          0.01683202	          0.01176564	          0.01154230	          0.01150251	          0.01608007	          0.01936235	          0.01567051	          0.01068285	          0.01100494	          0.06404909	          0.08725394	          0.01284006	          0.01144342	          0.01192270	          0.01084278	          0.01035285	          0.01044141	          0.01777777	          0.02862153	          0.03494402	          0.01081107	          0.01593334	          0.01114975	          0.01148636	          0.01207846	          0.01266210	          0.01114703	          0.04035588	          0.01153617	          0.01078453	
          3.78000000	        -30.54809375	         -2.56434093	        -22.80034023	         -4.76445412	         19.06432511	          2.61470187	         -4.64466233	         39.29756851	          8.87620371	          0.03015394	          0.07499458	          0.01738454	          0.01766577	          0.01333531	          0.01233792	          0.01146136	          0.01531259	          0.01635049	          0.01459349	          0.01068434	          0.01105531	          0.06252198	          0.08926868	          0.01245239	          0.01127125	          0.01173829	          0.01086105	          0.01033370	          0.01043659	          0.01655607	          0.02948116	          0.03562875	          0.01074529	          0.01604828	          0.01113505	          0.01135498	          0.01193669	          0.01273713	          0.01117251	          0.03686100	          0.01161769	          0.01079308	
          3.80000000	        -30.81704255	         -2.52071160	        -23.00762909	         -4.84370601	         19.45484552	          2.44571346	         -4.21555092	         39.96451763	          8.44325163	          0.03007972	          0.07684629	          0.01811366	          0.01824852	          0.01589247	          0.01326861	          0.01139529	          0.01473750	          0.01429977	          0.01380109	          0.01068681	          0.01110514	          0.06096921	          0.09116121	          0.01221939	          0.01115302	          0.01156384	          0.01087648	          0.01032204	          0.01043401	          0.01550932	          0.03050715	          0.03643301	          0.01070997	          0.01618715	          0.01112056	          0.01135775	          0.01179714	          0.01282021	          0.01119971	          0.03347701	          0.01179851	          0.01080258	
          3.82000000	        -31.07984332	         -2.48100901	        -23.18318816	         -4.93149724	         19.87390321	          2.27066604	         -3.82653830	         40.63340596	          8.01011656	          0.03036041	          0.07840838	          0.01915600	          0.01860950	          0.01908830	          0.01421819	          0.01136062	          0.01429671	          0.01306682	          0.01321507	          0.01068915	          0.01115198	          0.05953339	          0.09298191	          0.01207209	          0.01107169	          0.01132796	          0.01088884	          0.01031371	          0.01043176	          0.01466926	          0.03156699	          0.03724901	          0.01068772	          0.01634337	          0.01110072	          0.01121074	          0.01165470	          0.01290595	          0.01122399	          0.03040561	          0.01186354	          0.01081172	
          3.84000000	        -31.33684320	         -2.44420149	        -23.32521915	         -5.02776256	         20.32530380	          2.08848548	         -3.47642015	         41.30457938	          7.57454427	          0.03079543	          0.07976779	          0.02043195	          0.01884027	          0.02260732	          0.01521057	          0.01136626	          0.01392759	          0.01235665	          0.01276081	          0.01069156	          0.01120066	          0.05824180	          0.09464452	          0.01194876	          0.01101148	          0.01132522	          0.01090017	          0.01030684	          0.01042976	          0.01400773	          0.03271731	          0.03813160	          0.01067163	          0.01651455	          0.01108076	          0.01119859	          0.01153056	          0.01299528	          0.01124953	          0.02762524	          0.01198016	          0.01082101	
          3.86000000	        -31.58789555	         -2.40896672	        -23.43325774	         -5.13138707	         20.80957415	          1.89891491	         -3.16172793	         41.97908522	          7.13702145	          0.03129833	          0.08092054	          0.02185243	          0.01899102	          0.02619907	          0.01624781	          0.01135308	          0.01360431	          0.01191956	          0.01240099	          0.01069351	          0.01125105	          0.05702621	          0.09617111	          0.01185727	          0.01096134	          0.01127296	          0.01091047	          0.01030093	          0.01042802	          0.01349450	          0.03388733	          0.03902710	          0.01065897	          0.01668820	          0.01106237	          0.01117929	          0.01147669	          0.01308672	          0.01127417	          0.02511818	          0.01211465	          0.01082960	
          3.88000000	        -31.83233645	         -2.37384619	        -23.50807058	         -5.24038554	         21.32409177	          1.70253619	         -2.87703574	         42.65857152	          6.70236960	          0.03180345	          0.08188116	          0.02330594	          0.01909015	          0.02973651	          0.01732714	          0.01132982	          0.01331927	          0.01162476	          0.01211508	          0.01069532	          0.01130932	          0.05586546	          0.09759132	          0.01182225	          0.01091682	          0.01121167	          0.01092118	          0.01029567	          0.01042662	          0.01309192	          0.03492798	          0.03980928	          0.01064813	          0.01685421	          0.01105029	          0.01114834	          0.01126119	          0.01317960	          0.01130188	          0.02285155	          0.01224001	          0.01083844	
          3.90000000	        -32.06904668	         -2.33730170	        -23.55143127	         -5.35212079	         21.86366257	          1.50062307	         -2.61556230	         43.34498936	          6.27932354	          0.03229037	          0.08267377	          0.02471618	          0.01915752	          0.03312330	          0.01845071	          0.01131048	          0.01306901	          0.01138848	          0.01188632	          0.01069787	          0.01135868	          0.05469705	          0.09893977	          0.01176128	          0.01087677	          0.01115536	          0.01093301	          0.01029159	          0.01042651	          0.01276081	          0.03596087	          0.04058807	          0.01063947	          0.01700456	          0.01103786	          0.01112198	          0.01123506	          0.01327622	          0.01133039	          0.02077485	          0.01236935	          0.01084800	
          3.92000000	        -32.29665845	         -2.29774111	        -23.56585123	         -5.46360003	         22.42152072	          1.29484357	         -2.37024040	         44.04010615	          5.87793536	          0.03277381	          0.08329226	          0.02604166	          0.01919747	          0.03626518	          0.01952186	          0.01129371	          0.01286128	          0.01126146	          0.01171062	          0.01069908	          0.01135949	          0.05367116	          0.10027538	          0.01164990	          0.01084270	          0.01110426	          0.01094394	          0.01028790	          0.01042656	          0.01250185	          0.03680713	          0.04122006	          0.01063216	          0.01713036	          0.01102333	          0.01109227	          0.01112226	          0.01336812	          0.01135651	          0.01899140	          0.01249490	          0.01085647	
          3.94000000	        -32.51358722	         -2.25341118	        -23.55433546	         -5.57154751	         22.98987863	          1.08706440	         -2.13461976	         44.74511609	          5.50930922	          0.03318673	          0.08386186	          0.02712610	          0.01922989	          0.03903501	          0.02059138	          0.01127567	          0.01268998	          0.01108102	          0.01156801	          0.01070014	          0.01160096	          0.05281301	          0.10161042	          0.01159487	          0.01081244	          0.01105688	          0.01095503	          0.01028525	          0.01042776	          0.01229124	          0.03756581	          0.04178994	          0.01062646	          0.01723270	          0.01101598	          0.01107424	          0.01112607	          0.01345687	          0.01139355	          0.01746969	          0.01262039	          0.01086467	
